<svg version="1" xmlns="http://www.w3.org/2000/svg" width="933.333" height="933.333" viewBox="0 0 700.000000 700.000000"><path d="M110.5 1.9C93.6 6.1 78.2 18.2 70.2 33.6 62.4 48.8 63 20.4 63 350c0 324.7-.4 301 6.1 314.4 6.3 13 16.3 23 29.3 29.2 14.4 6.9-5.2 6.5 265.6 6.2l244.5-.3 5.7-2.7c8-3.7 15.2-10.7 19.1-18.7l3.2-6.6v-643l-3.2-6.6c-3.9-8-11.1-15-19.1-18.7L608.5.5 363 .3C133 .2 117.1.2 110.5 1.9zm6.5 133.3c0 103.6 0 106.3 2 110.2 2.1 4.5 4.8 6.6 9.5 7.6l3 .6.3 16.6.2 16.6-3.5.6c-8.4 1.6-13.6 11.8-9.8 19.3 2 4.2 7.4 8.3 10.9 8.3h2.4v34h-2.9c-3.6 0-8.9 4.2-10.7 8.7-1.2 2.7-1.4 22.1-1.4 110.2v107l-5.6 1.2c-3 .7-8.9 2.9-13 4.9l-7.4 3.6.2-266 .3-266.1 2.4-4.7c1.3-2.6 4-6.6 6-8.8 3.4-3.8 13.2-9.9 15.9-10 .9 0 1.2 21.9 1.2 106.2zm277.2 12.7c11.3 3.9 20.5 10.8 26.7 20 2.1 3.1 4.1 6.5 4.5 7.7 1.2 4 7.1 8.6 11.8 9.1 3.7.4 5.6-.1 11.6-3.1 17.1-8.6 32.3-8.9 49.1-.9C511.1 187 522 200.3 526 215c1.8 6.7 1.6 20.5-.4 27.5-5.3 18.1-19 31.8-36.9 37-7.3 2.1-11.5 5.7-12.7 11-.5 2.2-1 28.2-1 57.7V402H279v-56.3c0-53-.1-56.4-1.9-59-2.5-3.8-4.5-5-12.2-7.6-17-5.6-28.7-16.7-34.5-32.5-7.1-19.6-2.4-40.8 12.4-55.6 17.1-17.1 40.9-20.7 63.2-9.5 3.8 1.9 8.5 3.5 10.3 3.5 5.2 0 9.8-3.7 13.6-11 6.9-13 21.5-24.4 35.4-27.6 8.1-1.8 21.4-1.1 28.9 1.5zM475 443.5V457H279v-27h196v13.5zm134 190.1v32.6l-2.9 2.9c-2.9 2.8-3.2 2.9-13 2.9H583v-69.9l12.8-.4c7-.1 12.8-.4 13-.5.1-.1.2 14.5.2 32.4zm-54 3.4v35H336.5c-217.9 0-218.4 0-223.9-2.1-14.9-5.5-24.6-22.8-21.6-38.2.6-3.4 2.1-7.9 3.2-10 4.6-9.1 14.6-16.8 24.2-18.7 2.2-.4 101.4-.8 220.4-.9L555 602v35z"/></svg>