<?xml version="1.0" encoding="UTF-8"?>
<svg width="29px" height="25px" viewBox="0 0 29 25" version="1.1" xmlns="http://www.w3.org/2000/svg" xmlns:xlink="http://www.w3.org/1999/xlink">
    <!-- Generator: Sketch 60.1 (88133) - https://sketch.com -->
    <title>animatie_icon</title>
    <desc>Created with Sketch.</desc>
    <g id="Symbols" stroke="none" stroke-width="1" fill="none" fill-rule="evenodd">
        <g id="animaties" transform="translate(-3.000000, -6.000000)" fill="#16191C" fill-rule="nonzero">
            <path d="M22.7490234,13.8828125 C23.3935547,13.8828125 23.9770508,13.7265625 24.4995117,13.4140625 C25.0219727,13.1015625 25.4394531,12.684082 25.7519531,12.1616211 C25.8300781,12.0310059 25.8984375,11.8968811 25.9570312,11.7592468 L25.996,11.657 L30.6738281,11.65625 C30.9863281,11.65625 31.2573242,11.5366211 31.4868164,11.2973633 C31.7163086,11.0581055 31.8310547,10.7675781 31.8310547,10.4257812 C31.8310547,10.0839844 31.7163086,9.79345703 31.4868164,9.55419922 C31.2573242,9.31494141 30.9863281,9.1953125 30.6738281,9.1953125 L26.002,9.196 L25.9570312,9.07858276 C25.8984375,8.94033813 25.8300781,8.8059082 25.7519531,8.67529297 C25.4394531,8.15283203 25.0219727,7.73535156 24.4995117,7.42285156 C23.9770508,7.11035156 23.3935547,6.95410156 22.7490234,6.95410156 C22.1240234,6.95410156 21.5478516,7.11035156 21.0205078,7.42285156 C20.4931641,7.73535156 20.0732422,8.15283203 19.7607422,8.67529297 C19.6826172,8.8059082 19.6142578,8.94033813 19.5556641,9.07858276 L19.51,9.196 L4.74609375,9.1953125 C4.40429688,9.1953125 4.11621094,9.31494141 3.88183594,9.55419922 C3.64746094,9.79345703 3.53027344,10.0839844 3.53027344,10.4257812 C3.53027344,10.7675781 3.64746094,11.0581055 3.88183594,11.2973633 C4.11621094,11.5366211 4.40429688,11.65625 4.74609375,11.65625 L19.516,11.657 L19.5556641,11.7592468 C19.6142578,11.8968811 19.6826172,12.0310059 19.7607422,12.1616211 C20.0732422,12.684082 20.4931641,13.1015625 21.0205078,13.4140625 C21.5478516,13.7265625 22.1240234,13.8828125 22.7490234,13.8828125 Z M22.7490234,12.0810547 C22.2900391,12.0810547 21.8969727,11.9199219 21.5698242,11.5976562 C21.2426758,11.2753906 21.0791016,10.8798828 21.0791016,10.4111328 C21.0791016,9.94238281 21.2426758,9.54931641 21.5698242,9.23193359 C21.8969727,8.91455078 22.2900391,8.75585938 22.7490234,8.75585938 C23.2275391,8.75585938 23.6279297,8.91455078 23.9501953,9.23193359 C24.2724609,9.54931641 24.4335938,9.94238281 24.4335938,10.4111328 C24.4335938,10.8798828 24.2724609,11.2753906 23.9501953,11.5976562 C23.6279297,11.9199219 23.2275391,12.0810547 22.7490234,12.0810547 Z M12.7734375,22.4521484 C13.4082031,22.4521484 13.9868164,22.2958984 14.5092773,21.9833984 C15.0317383,21.6708984 15.4516602,21.253418 15.769043,20.730957 C15.8483887,20.6003418 15.9178162,20.4659119 15.9773254,20.3276672 L16.017,20.226 L30.6152344,20.2255859 C30.9570312,20.2255859 31.2451172,20.1035156 31.4794922,19.859375 C31.7138672,19.6152344 31.8310547,19.3222656 31.8310547,18.9804688 C31.8310547,18.6386719 31.7138672,18.3505859 31.4794922,18.1162109 C31.2451172,17.8818359 30.9570312,17.7646484 30.6152344,17.7646484 L16.019,17.765 L15.9773254,17.6566162 C15.9178162,17.5186768 15.8483887,17.3837891 15.769043,17.2519531 C15.4516602,16.7246094 15.0317383,16.3046875 14.5092773,15.9921875 C13.9868164,15.6796875 13.4082031,15.5234375 12.7734375,15.5234375 C12.1386719,15.5234375 11.5576172,15.6796875 11.0302734,15.9921875 C10.5029297,16.3046875 10.0830078,16.7246094 9.77050781,17.2519531 C9.69238281,17.3837891 9.62402344,17.5186768 9.56542969,17.6566162 L9.523,17.765 L4.71679688,17.7646484 C4.38476562,17.7646484 4.10400391,17.8818359 3.87451172,18.1162109 C3.64501953,18.3505859 3.53027344,18.6386719 3.53027344,18.9804688 C3.53027344,19.3222656 3.64746094,19.6152344 3.88183594,19.859375 C4.11621094,20.1035156 4.39453125,20.2255859 4.71679688,20.2255859 L9.526,20.226 L9.56542969,20.3276672 C9.62402344,20.4659119 9.69238281,20.6003418 9.77050781,20.730957 C10.0830078,21.253418 10.5029297,21.6708984 11.0302734,21.9833984 C11.5576172,22.2958984 12.1386719,22.4521484 12.7734375,22.4521484 Z M12.7734375,20.6650391 C12.3046875,20.6650391 11.9091797,20.5014648 11.5869141,20.1743164 C11.2646484,19.847168 11.1035156,19.4492188 11.1035156,18.9804688 C11.1035156,18.5117188 11.2646484,18.1162109 11.5869141,17.7939453 C11.9091797,17.4716797 12.3046875,17.3105469 12.7734375,17.3105469 C13.2519531,17.3105469 13.6474609,17.4716797 13.9599609,17.7939453 C14.2724609,18.1162109 14.4287109,18.5117188 14.4287109,18.9804688 C14.4287109,19.4492188 14.2724609,19.847168 13.9599609,20.1743164 C13.6474609,20.5014648 13.2519531,20.6650391 12.7734375,20.6650391 Z M22.7490234,31.0214844 C23.3935547,31.0214844 23.9770508,30.8652344 24.4995117,30.5527344 C25.0219727,30.2402344 25.4394531,29.8203125 25.7519531,29.2929688 C25.8300781,29.1611328 25.8984375,29.0259399 25.9570312,28.8873901 L25.998,28.781 L30.6738281,28.7802734 C30.9863281,28.7802734 31.2573242,28.6582031 31.4868164,28.4140625 C31.7163086,28.1699219 31.8310547,27.8818359 31.8310547,27.5498047 C31.8310547,27.2080078 31.7163086,26.9150391 31.4868164,26.6708984 C31.2573242,26.4267578 30.9863281,26.3046875 30.6738281,26.3046875 L25.992,26.305 L25.9570312,26.2122192 C25.8984375,26.0736694 25.8300781,25.9384766 25.7519531,25.8066406 C25.4394531,25.2792969 25.0219727,24.8618164 24.4995117,24.5541992 C23.9770508,24.246582 23.3935547,24.0927734 22.7490234,24.0927734 C22.1240234,24.0927734 21.5478516,24.246582 21.0205078,24.5541992 C20.4931641,24.8618164 20.0732422,25.2792969 19.7607422,25.8066406 C19.6826172,25.9384766 19.6142578,26.0736694 19.5556641,26.2122192 L19.52,26.305 L4.74609375,26.3046875 C4.40429688,26.3046875 4.11621094,26.4267578 3.88183594,26.6708984 C3.64746094,26.9150391 3.53027344,27.2080078 3.53027344,27.5498047 C3.53027344,27.8818359 3.64746094,28.1699219 3.88183594,28.4140625 C4.11621094,28.6582031 4.40429688,28.7802734 4.74609375,28.7802734 L19.514,28.781 L19.5556641,28.8873901 C19.6142578,29.0259399 19.6826172,29.1611328 19.7607422,29.2929688 C20.0732422,29.8203125 20.4931641,30.2402344 21.0205078,30.5527344 C21.5478516,30.8652344 22.1240234,31.0214844 22.7490234,31.0214844 Z M22.7490234,29.2197266 C22.2900391,29.2197266 21.8969727,29.0561523 21.5698242,28.7290039 C21.2426758,28.4018555 21.0791016,28.0087891 21.0791016,27.5498047 C21.0791016,27.0810547 21.2426758,26.6855469 21.5698242,26.3632812 C21.8969727,26.0410156 22.2900391,25.8798828 22.7490234,25.8798828 C23.2275391,25.8798828 23.6279297,26.0410156 23.9501953,26.3632812 C24.2724609,26.6855469 24.4335938,27.0810547 24.4335938,27.5498047 C24.4335938,28.0087891 24.2724609,28.4018555 23.9501953,28.7290039 C23.6279297,29.0561523 23.2275391,29.2197266 22.7490234,29.2197266 Z" id="animatie_icon"></path>
        </g>
    </g>
</svg>