<?xml version="1.0" encoding="UTF-8"?>
<svg width="20px" height="18px" viewBox="0 0 20 18" version="1.1" xmlns="http://www.w3.org/2000/svg" xmlns:xlink="http://www.w3.org/1999/xlink">
    <!-- Generator: Sketch 60.1 (88133) - https://sketch.com -->
    <title>Back</title>
    <desc>Created with Sketch.</desc>
    <g id="Symbols" stroke="none" stroke-width="1" fill="none" fill-rule="evenodd">
        <g id="Back" transform="translate(-12.000000, -13.000000)"  fill="#16191C" fill-rule="nonzero">
            <path class="black" d="M20.1802817,31 C20.4882629,31 20.743662,30.892562 20.9464789,30.677686 C21.1492958,30.4628099 21.2507042,30.1942149 21.2507042,29.8719008 C21.2507042,29.7066116 21.2225352,29.5516529 21.1661972,29.4070248 C21.1098592,29.2623967 21.0328638,29.1363636 20.9352113,29.0289256 L18.5464789,26.3512397 L15.2297383,23.0255267 L17.7464789,23.1900826 L30.9295775,23.1900826 C31.2450704,23.1900826 31.5023474,23.0805785 31.7014085,22.8615702 C31.9004695,22.642562 32,22.3553719 32,22 C32,21.6528926 31.9004695,21.3698347 31.7014085,21.1508264 C31.5023474,20.9318182 31.2450704,20.822314 30.9295775,20.822314 L17.7464789,20.822314 L15.2402274,20.9863742 L18.5464789,17.661157 L20.9352113,14.9834711 C21.0328638,14.8760331 21.1098592,14.75 21.1661972,14.6053719 C21.2225352,14.4607438 21.2507042,14.3057851 21.2507042,14.1404959 C21.2507042,13.8099174 21.1492958,13.5371901 20.9464789,13.322314 C20.743662,13.107438 20.4882629,13 20.1802817,13 C20.0450704,13 19.9117371,13.0309917 19.7802817,13.0929752 C19.6488263,13.1549587 19.515493,13.2561983 19.3802817,13.3966942 L12.3605634,21.1198347 C12.1201878,21.3677686 12,21.661157 12,22 C12,22.3471074 12.1201878,22.6404959 12.3605634,22.8801653 L19.4140845,30.6404959 C19.6469484,30.8801653 19.9023474,31 20.1802817,31 Z"></path>
        </g>
    </g>
</svg>