<?xml version="1.0" encoding="UTF-8"?>
<svg width="22px" height="22px" viewBox="0 0 22 22" version="1.1" xmlns="http://www.w3.org/2000/svg" xmlns:xlink="http://www.w3.org/1999/xlink">
    <!-- Generator: Sketch 60.1 (88133) - https://sketch.com -->
    <title>Dark mode</title>
    <desc>Created with Sketch.</desc>
    <g id="Symbols" stroke="none" stroke-width="1" class="white" fill="#ffffff" fill-rule="evenodd">
        <g id="dark_mode_button" transform="translate(-11.000000, -11.000000)" class="black" fill="#16191C" fill-rule="nonzero">
            <g id="Group">
                <path d="M22,11 C23.5089163,11 24.9272977,11.2866941 26.255144,11.8600823 C27.5829904,12.4334705 28.7524005,13.2275377 29.7633745,14.242284 C30.7743484,15.2570302 31.5665295,16.4264403 32.1399177,17.7505144 C32.7133059,19.0745885 33,20.4910837 33,22 C33,23.5089163 32.7133059,24.9254115 32.1399177,26.2494856 C31.5665295,27.5735597 30.7743484,28.7410837 29.7633745,29.7520576 C28.7524005,30.7630316 27.5829904,31.5570988 26.255144,32.1342593 C24.9272977,32.7114198 23.5089163,33 22,33 C20.4986283,33 19.0840192,32.7114198 17.7561728,32.1342593 C16.4283265,31.5570988 15.2589163,30.7630316 14.2479424,29.7520576 C13.2369684,28.7410837 12.4429012,27.5735597 11.8657407,26.2494856 C11.2885802,24.9254115 11,23.5089163 11,22 C11,20.4910837 11.2866941,19.0745885 11.8600823,17.7505144 C12.4334705,16.4264403 13.2275377,15.2570302 14.242284,14.242284 C15.2570302,13.2275377 16.4283265,12.4334705 17.7561728,11.8600823 C19.0840192,11.2866941 20.4986283,11 22,11 Z M21.9634551,13.0465116 L21.9633498,17.7976346 L22,17.7973422 C24.3210638,17.7973422 26.2026578,19.6789362 26.2026578,22 C26.2026578,24.3210638 24.3210638,26.2026578 22,26.2026578 L21.9633498,26.2025013 L21.9628606,17.7975029 C19.6588978,17.8174468 17.7973422,19.6913286 17.7973422,22 C17.7973422,24.3090063 19.6594379,26.1830969 21.9638634,26.2025057 L21.9638634,26.2025057 L21.9634551,30.9534884 C23.218029,30.9534884 24.3894685,30.72203 25.4777736,30.2591132 C26.5660786,29.7961964 27.5183456,29.1563927 28.3345744,28.339702 C29.1508032,27.5230114 29.7932055,26.5727147 30.2617813,25.488812 C30.730357,24.4049092 30.9608661,23.2419719 30.9533084,22 C30.9533084,20.7655552 30.72091,19.6063814 30.256113,18.5224787 C29.791316,17.4385759 29.1489137,16.4863975 28.3289061,15.6659433 C27.5088985,14.8454891 26.5547421,14.2038036 25.4664371,13.7408868 C24.378132,13.27797 23.2104714,13.0465116 21.9634551,13.0465116 L21.9634551,13.0465116 Z" id="Dark-mode"></path>
            </g>
        </g>
    </g>
</svg>