<?xml version="1.0" encoding="UTF-8"?>
<svg width="22px" height="33px" viewBox="0 0 22 33" version="1.1" xmlns="http://www.w3.org/2000/svg" xmlns:xlink="http://www.w3.org/1999/xlink">
    <!-- Generator: Sketch 60.1 (88133) - https://sketch.com -->
    <title>licht_icon</title>
    <desc>Created with Sketch.</desc>
    <g id="Symbols" stroke="none" stroke-width="1" fill="none" fill-rule="evenodd">
        <g id="licht" transform="translate(-5.000000, -2.000000)" fill="#16191C" fill-rule="nonzero">
            <path d="M21.1083984,27.359375 C21.3623047,27.359375 21.5673828,27.28125 21.7236328,27.125 C21.8798828,26.96875 21.9580078,26.7636719 21.9580078,26.5097656 L21.9580078,24.3417969 C21.9580078,23.6679688 22.121582,23.0307617 22.4487305,22.4301758 C22.7758789,21.8295898 23.1835938,21.2119141 23.671875,20.5771484 C24.1601562,19.9423828 24.6459961,19.2539062 25.1293945,18.5117188 C25.612793,17.7695312 26.0205078,16.9345703 26.3525391,16.0068359 C26.6845703,15.0791016 26.8505859,14.0097656 26.8505859,12.7988281 C26.8505859,11.1972656 26.5942383,9.7421875 26.081543,8.43359375 C25.5688477,7.125 24.8339844,5.99707031 23.8769531,5.04980469 C22.9199219,4.10253906 21.7773438,3.37744141 20.4492188,2.87451172 C19.1210938,2.37158203 17.6464844,2.12011719 16.0253906,2.12011719 C14.4042969,2.12011719 12.9321289,2.37158203 11.6088867,2.87451172 C10.2856445,3.37744141 9.14550781,4.10253906 8.18847656,5.04980469 C7.23144531,5.99707031 6.49658203,7.125 5.98388672,8.43359375 C5.47119141,9.7421875 5.21484375,11.1972656 5.21484375,12.7988281 C5.21484375,14.0097656 5.37841797,15.0791016 5.70556641,16.0068359 C6.03271484,16.9345703 6.44042969,17.7695312 6.92871094,18.5117188 C7.41699219,19.2539062 7.90283203,19.9423828 8.38623047,20.5771484 C8.86962891,21.2119141 9.27734375,21.8295898 9.609375,22.4301758 C9.94140625,23.0307617 10.1074219,23.6679688 10.1074219,24.3417969 L10.1074219,26.5097656 C10.1074219,26.7636719 10.1831055,26.96875 10.3344727,27.125 C10.4858398,27.28125 10.6933594,27.359375 10.9570312,27.359375 L21.1083984,27.359375 Z M19.702,25.089 L12.363,25.089 L12.3632812,24.3417969 L12.3632812,24.3417969 C12.3632812,23.5019531 12.1972656,22.7329102 11.8652344,22.034668 C11.5332031,21.3364258 11.1279297,20.6552734 10.6494141,19.9912109 C10.1708984,19.3271484 9.6875,18.6435547 9.19921875,17.9404297 C8.7109375,17.2373047 8.30322266,16.4682617 7.97607422,15.6333008 C7.64892578,14.7983398 7.48535156,13.8535156 7.48535156,12.7988281 C7.48535156,11.1191406 7.84179688,9.64697266 8.5546875,8.38232422 C9.26757812,7.11767578 10.2636719,6.13867188 11.5429688,5.4453125 C12.8222656,4.75195312 14.3164062,4.40527344 16.0253906,4.40527344 C17.7441406,4.40527344 19.2407227,4.75195312 20.5151367,5.4453125 C21.7895508,6.13867188 22.7832031,7.11767578 23.4960938,8.38232422 C24.2089844,9.64697266 24.5654297,11.1191406 24.5654297,12.7988281 C24.5654297,13.8535156 24.4018555,14.7983398 24.074707,15.6333008 C23.7475586,16.4682617 23.3422852,17.2373047 22.8588867,17.9404297 C22.3754883,18.6435547 21.8920898,19.3271484 21.4086914,19.9912109 C20.925293,20.6552734 20.5200195,21.3364258 20.1928711,22.034668 C19.8657227,22.7329102 19.7021484,23.5019531 19.7021484,24.3417969 L19.702,25.089 Z M20.6542969,31.1679688 C21.015625,31.1679688 21.3256836,31.0361328 21.5844727,30.7724609 C21.8432617,30.5087891 21.9726562,30.1914062 21.9726562,29.8203125 C21.9726562,29.4492188 21.8432617,29.1342773 21.5844727,28.8754883 C21.3256836,28.6166992 21.015625,28.4873047 20.6542969,28.4873047 L11.4111328,28.4873047 C11.0400391,28.4873047 10.7275391,28.6166992 10.4736328,28.8754883 C10.2197266,29.1342773 10.0927734,29.4492188 10.0927734,29.8203125 C10.0927734,30.1914062 10.2197266,30.5087891 10.4736328,30.7724609 C10.7275391,31.0361328 11.0400391,31.1679688 11.4111328,31.1679688 L20.6542969,31.1679688 Z M16.0253906,34.5810547 C17.0117188,34.5810547 17.8271484,34.3710938 18.4716797,33.9511719 C19.1162109,33.53125 19.4726562,32.9746094 19.5410156,32.28125 L12.5244141,32.28125 C12.5830078,32.9746094 12.9321289,33.53125 13.5717773,33.9511719 C14.2114258,34.3710938 15.0292969,34.5810547 16.0253906,34.5810547 Z" id="licht_icon"></path>
        </g>
    </g>
</svg>