<?xml version="1.0" encoding="UTF-8"?>
<svg width="32px" height="30px" viewBox="0 0 32 30" version="1.1" xmlns="http://www.w3.org/2000/svg" xmlns:xlink="http://www.w3.org/1999/xlink">
    <!-- Generator: Sketch 60.1 (88133) - https://sketch.com -->
    <title>scene_icon</title>
    <desc>Created with Sketch.</desc>
    <g id="Symbols" stroke="none" stroke-width="1" fill="none" fill-rule="evenodd">
        <g id="scene" transform="translate(-3.000000, -4.000000)" fill="#16191C" fill-rule="nonzero">
            <path d="M12.4804688,33.3286133 C13.5351562,33.0991211 14.4921875,32.6523438 15.3515625,31.9882812 C16.3183594,31.2558594 17.0166016,30.4111328 17.4462891,29.4541016 C17.8330078,28.5927734 17.9883545,27.7017822 17.9123291,26.7811279 L17.909,26.751 L17.9447937,26.7441406 C18.5096741,26.6269531 19.0539551,26.421875 19.5776367,26.1289062 C20.2758789,25.7382812 20.9912109,25.171875 21.7236328,24.4296875 C22.4755859,23.6875 23.2763672,22.815918 24.1259766,21.8149414 C24.9755859,20.8139648 25.8300781,19.7617188 26.6894531,18.6582031 C27.5488281,17.5546875 28.3740234,16.4658203 29.1650391,15.3916016 C29.9560547,14.3173828 30.6713867,13.3286133 31.3110352,12.425293 C31.9506836,11.5219727 32.4780273,10.7773438 32.8930664,10.1914062 C33.3081055,9.60546875 33.5644531,9.23925781 33.6621094,9.09277344 C34.0234375,8.58496094 34.206543,8.06982422 34.2115589,7.54736328 C34.2163086,7.02490234 34.0869141,6.54882812 33.8232422,6.11914062 C33.5595703,5.68945312 33.2104492,5.34277344 32.7758789,5.07910156 C32.3413086,4.81542969 31.862793,4.68603516 31.340332,4.6907848 C30.8178711,4.69580078 30.2978516,4.87402344 29.7802734,5.22558594 C29.6435547,5.32324219 29.2797852,5.57714844 28.6889648,5.98730469 C28.0981445,6.39746094 27.3535156,6.92236328 26.4550781,7.56201172 C25.5566406,8.20166016 24.5751953,8.91455078 23.5107422,9.70068359 C22.4462891,10.4868164 21.3623047,11.3120117 20.2587891,12.1762695 C19.1552734,13.0405273 18.1005859,13.8950195 17.0947266,14.7397461 C16.0888672,15.5844727 15.2099609,16.3876953 14.4580078,17.1494141 C13.7353516,17.8818359 13.1762695,18.5922852 12.7807617,19.2807617 C12.4841309,19.7971191 12.2740173,20.3313293 12.1504211,20.8833923 L12.127,21 L11.8882324,21.000708 C11.8001465,21.0034912 11.7119141,21.0087891 11.6235352,21.0166016 C10.7397461,21.0947266 9.90722656,21.4414062 9.12597656,22.0566406 C8.58886719,22.4765625 8.203125,22.918457 7.96875,23.3823242 C7.734375,23.8461914 7.56835938,24.3076172 7.47070312,24.7666016 C7.37304688,25.2255859 7.26806641,25.6430664 7.15576172,26.019043 C7.04345703,26.3950195 6.84082031,26.6904297 6.54785156,26.9052734 C6.20605469,27.1689453 5.86669922,27.3276367 5.52978516,27.3813477 C5.19287109,27.4350586 4.87060547,27.4765625 4.56298828,27.5058594 C4.25537109,27.5351562 3.96972656,27.6572266 3.70605469,27.8720703 C3.38378906,28.1259766 3.21044922,28.4628906 3.18603516,28.8828125 C3.16162109,29.3027344 3.33984375,29.7519531 3.72070312,30.2304688 C4.39453125,31.109375 5.21484375,31.8173828 6.18164062,32.3544922 C7.1484375,32.8916016 8.17626953,33.2456055 9.26513672,33.4165039 C10.3540039,33.5874023 11.4257812,33.5581055 12.4804688,33.3286133 Z M21.383,21.215 L21.311085,21.0354353 C21.2708267,20.9433594 21.2276786,20.8516323 21.1816406,20.7602539 C20.859375,20.1206055 20.4394531,19.5371094 19.921875,19.0097656 C19.4042969,18.4824219 18.8305664,18.0551758 18.2006836,17.7280273 L17.9302854,17.5963409 L17.9302854,17.5963409 L17.688,17.495 L17.8788664,17.3257932 C18.1303811,17.1049705 18.3914621,16.8801618 18.6621094,16.6513672 C19.609375,15.8505859 20.6030273,15.0424805 21.6430664,14.2270508 C22.6831055,13.4116211 23.7084961,12.6303711 24.7192383,11.8833008 C25.7299805,11.1362305 26.6625977,10.4550781 27.5170898,9.83984375 C28.371582,9.22460938 29.0844727,8.71435547 29.6557617,8.30908203 C30.2270508,7.90380859 30.5957031,7.63769531 30.7617188,7.51074219 C30.9082031,7.40332031 31.0473633,7.37402344 31.1791992,7.42285156 C31.3110352,7.47167969 31.4013672,7.56445312 31.4501953,7.70117188 C31.4990234,7.83789062 31.4648438,7.984375 31.3476562,8.140625 C31.2597656,8.296875 31.015625,8.66064453 30.6152344,9.23193359 C30.2148438,9.80322266 29.7070312,10.5185547 29.0917969,11.3779297 C28.4765625,12.2373047 27.7905273,13.1723633 27.0336914,14.1831055 C26.2768555,15.1938477 25.4907227,16.2192383 24.675293,17.2592773 C23.8598633,18.2993164 23.0493164,19.2905273 22.2436523,20.2329102 C22.0134626,20.5021624 21.7874581,20.761649 21.565639,21.01137 L21.383,21.215 Z M17.145,24.378 L17.1007191,24.2988806 C16.944913,24.0362983 16.7671342,23.7771662 16.5673828,23.5214844 C15.9423828,22.7228733 15.2575834,22.1113764 14.5129847,21.6869936 L14.497,21.679 L14.4989636,21.6650191 C14.5497848,21.2913345 14.6728516,20.9213867 14.8681641,20.5551758 C15.1074219,20.1065674 15.470047,19.629921 15.9560394,19.1252365 L16.002,19.08 L16.0484096,19.0848015 C16.3762556,19.1366191 16.7128209,19.2532087 17.0581055,19.4345703 C17.5415039,19.6884766 17.9907227,20.0205078 18.4057617,20.4306641 C18.8208008,20.8408203 19.1601562,21.2900391 19.4238281,21.7783203 C19.6121652,22.1270926 19.7357302,22.4683913 19.7945233,22.8022162 L19.804,22.876 L19.7668076,22.9131165 C19.2738724,23.3894958 18.8201904,23.7387695 18.4057617,23.9609375 C18.0110677,24.172526 17.6078966,24.3095161 17.1962484,24.3719076 L17.145,24.378 Z M10.2832031,31.3510742 C9.62890625,31.3364258 8.99658203,31.2070312 8.38623047,30.9628906 C7.77587891,30.71875 7.23144531,30.3476562 6.75292969,29.8496094 C6.66503906,29.7617187 6.62109375,29.6738281 6.62109375,29.5859375 C6.62109375,29.4980469 6.65527344,29.4248047 6.72363281,29.3662109 C6.78222656,29.3076172 6.89453125,29.2490234 7.06054688,29.1904297 C7.2265625,29.1318359 7.41210938,29.0585937 7.6171875,28.9707031 C7.82226562,28.8828125 8.01757812,28.7412109 8.203125,28.5458984 C8.5546875,28.2041016 8.80615234,27.8378906 8.95751953,27.4472656 C9.10888672,27.0566406 9.23828125,26.6586914 9.34570312,26.253418 C9.453125,25.8481445 9.59716797,25.4550781 9.77783203,25.0742187 C9.95849609,24.6933594 10.2392578,24.3515625 10.6201172,24.0488281 C11.0400391,23.7070312 11.496582,23.5166016 11.9897461,23.4775391 C12.4829102,23.4384766 12.9760742,23.5410156 13.4692383,23.7851562 C13.9624023,24.0292969 14.4091797,24.4003906 14.8095703,24.8984375 C15.2587891,25.4648437 15.5175781,26.0605469 15.5859375,26.6855469 C15.6542969,27.3105469 15.5419922,27.9233398 15.2490234,28.5239258 C14.9560547,29.1245117 14.5117188,29.6640625 13.9160156,30.1425781 C13.3984375,30.5625 12.8271484,30.8725586 12.2021484,31.0727539 C11.5771484,31.2729492 10.9375,31.3657227 10.2832031,31.3510742 Z" id="scene_icon"></path>
        </g>
    </g>
</svg>