<?xml version="1.0" encoding="UTF-8"?>
<svg width="18px" height="18px" viewBox="0 0 18 18" version="1.1" xmlns="http://www.w3.org/2000/svg" xmlns:xlink="http://www.w3.org/1999/xlink">
    <!-- Generator: Sketch 60.1 (88133) - https://sketch.com -->
    <title>scene_opslaan</title>
    <desc>Created with Sketch.</desc>
    <g id="Symbols" stroke="none" stroke-width="1" fill="none" fill-rule="evenodd">
        <g id="Add" transform="translate(-2.000000, -5.000000)" fill="#16191C" fill-rule="nonzero">
            <path d="M11.0429688,22.2890625 C11.2291667,22.2890625 11.4010417,22.2407227 11.5585938,22.144043 C11.7161458,22.0473633 11.8432617,21.9202474 11.9399414,21.7626953 C12.0366211,21.6051432 12.0849609,21.436849 12.0849609,21.2578125 L12.0849609,14.7158203 L18.4550781,14.7158203 C18.6341146,14.7158203 18.8041992,14.6692708 18.965332,14.5761719 C19.1264648,14.4830729 19.2535807,14.3577474 19.3466797,14.2001953 C19.4397786,14.0426432 19.4863281,13.8671875 19.4863281,13.6738281 C19.4863281,13.4876302 19.4397786,13.3157552 19.3466797,13.1582031 C19.2535807,13.000651 19.1264648,12.8735352 18.965332,12.7768555 C18.8041992,12.6801758 18.6341146,12.6318359 18.4550781,12.6318359 L12.0849609,12.6318359 L12.0849609,6.08984375 C12.0849609,5.90364583 12.0366211,5.7335612 11.9399414,5.57958984 C11.8432617,5.42561849 11.7161458,5.30029297 11.5585938,5.20361328 C11.4010417,5.10693359 11.2291667,5.05859375 11.0429688,5.05859375 C10.8567708,5.05859375 10.6831055,5.10693359 10.5219727,5.20361328 C10.3608398,5.30029297 10.233724,5.42561849 10.140625,5.57958984 C10.047526,5.7335612 10.0009766,5.90364583 10.0009766,6.08984375 L10.0009766,12.6318359 L3.63085938,12.6318359 C3.44466146,12.6318359 3.27457682,12.6801758 3.12060547,12.7768555 C2.96663411,12.8735352 2.83951823,13.000651 2.73925781,13.1582031 C2.6389974,13.3157552 2.58886719,13.4876302 2.58886719,13.6738281 C2.58886719,13.8671875 2.6389974,14.0426432 2.73925781,14.2001953 C2.83951823,14.3577474 2.96663411,14.4830729 3.12060547,14.5761719 C3.27457682,14.6692708 3.44466146,14.7158203 3.63085938,14.7158203 L10.0009766,14.7158203 L10.0009766,21.2578125 C10.0009766,21.436849 10.047526,21.6051432 10.140625,21.7626953 C10.233724,21.9202474 10.3608398,22.0473633 10.5219727,22.144043 C10.6831055,22.2407227 10.8567708,22.2890625 11.0429688,22.2890625 Z" id="scene_opslaan"></path>
        </g>
    </g>
</svg>