<?xml version="1.0" encoding="UTF-8"?>
<svg width="48px" height="48px" viewBox="0 0 48 48" version="1.1" xmlns="http://www.w3.org/2000/svg" xmlns:xlink="http://www.w3.org/1999/xlink">
    <!-- Generator: Sketch 60.1 (88133) - https://sketch.com -->
    <title>temperatuur_icon</title>
    <desc>Created with Sketch.</desc>
    <g id="temperatuur_icon" stroke="none" stroke-width="1" fill="none" fill-rule="evenodd">
        <rect id="Rectangle" stroke="#FA8925" stroke-width="2" x="1" y="1" width="46" height="46" rx="8"></rect>
        <path d="M24.0844727,37.2128906 C24.9731445,37.2128906 25.8068034,37.0478516 26.5854492,36.7177734 C27.3640951,36.3876953 28.0454102,35.9285482 28.6293945,35.340332 C29.2133789,34.7521159 29.672526,34.0708008 30.0068359,33.2963867 C30.3411458,32.5219727 30.5083008,31.6861979 30.5083008,30.7890625 C30.5083008,29.875 30.3242188,29.0159505 29.9560547,28.2119141 C29.5878906,27.4078776 29.0441081,26.680013 28.324707,26.0283203 C28.1977539,25.9098307 28.1152344,25.8019206 28.0771484,25.7045898 C28.0390625,25.6072591 28.0200195,25.4739583 28.0200195,25.3046875 L28.0327148,14.6533203 C28.0327148,13.7900391 27.8655599,13.0325521 27.53125,12.3808594 C27.1969401,11.7291667 26.7335612,11.2234701 26.1411133,10.8637695 C25.5486654,10.504069 24.8631185,10.3242188 24.0844727,10.3242188 C23.2888997,10.3242188 22.5948893,10.504069 22.0024414,10.8637695 C21.4099935,11.2234701 20.9466146,11.7291667 20.6123047,12.3808594 C20.2779948,13.0325521 20.1108398,13.7900391 20.1108398,14.6533203 L20.1235352,25.3046875 C20.1235352,25.4739583 20.1044922,25.6072591 20.0664062,25.7045898 C20.0283203,25.8019206 19.9458008,25.9098307 19.8188477,26.0283203 C19.0994466,26.6715495 18.5535482,27.3972982 18.1811523,28.2055664 C17.8087565,29.0138346 17.6225586,29.875 17.6225586,30.7890625 C17.6225586,31.6861979 17.7897135,32.5219727 18.1240234,33.2963867 C18.4583333,34.0708008 18.9217122,34.7521159 19.5141602,35.340332 C20.1066081,35.9285482 20.7921549,36.3876953 21.5708008,36.7177734 C22.3494466,37.0478516 23.1873372,37.2128906 24.0844727,37.2128906 Z M24.0844727,35.2958984 C23.2550456,35.2958984 22.4975586,35.0906576 21.8120117,34.6801758 C21.1264648,34.269694 20.5805664,33.7237956 20.1743164,33.0424805 C19.7680664,32.3611654 19.5649414,31.6057943 19.5649414,30.7763672 C19.5649414,30.023112 19.738444,29.3227539 20.0854492,28.675293 C20.4324544,28.027832 20.9191081,27.4967448 21.5454102,27.0820312 C21.7316081,26.9550781 21.8649089,26.8238932 21.9453125,26.6884766 C22.0257161,26.5530599 22.065918,26.3626302 22.065918,26.1171875 L22.065918,14.7421875 C22.065918,13.9889323 22.2521159,13.3880208 22.6245117,12.9394531 C22.9969076,12.4908854 23.4835612,12.2666016 24.0844727,12.2666016 C24.6769206,12.2666016 25.1551107,12.4908854 25.519043,12.9394531 C25.8829753,13.3880208 26.0649414,13.9889323 26.0649414,14.7421875 L26.0649414,26.1171875 C26.0649414,26.3626302 26.1051432,26.5530599 26.1855469,26.6884766 C26.2659505,26.8238932 26.3992513,26.9550781 26.5854492,27.0820312 C27.2202148,27.4967448 27.7089844,28.027832 28.0517578,28.675293 C28.3945312,29.3227539 28.565918,30.023112 28.565918,30.7763672 C28.565918,31.6057943 28.3649089,32.3611654 27.9628906,33.0424805 C27.5608724,33.7237956 27.0192057,34.269694 26.3378906,34.6801758 C25.6565755,35.0906576 24.9054362,35.2958984 24.0844727,35.2958984 Z M32.9204102,14.8818359 C33.1404622,14.8818359 33.3160807,14.8120117 33.4472656,14.6723633 C33.5784505,14.5327148 33.644043,14.3655599 33.644043,14.1708984 C33.644043,13.976237 33.5784505,13.8069661 33.4472656,13.6630859 C33.3160807,13.5192057 33.1404622,13.4472656 32.9204102,13.4472656 L30.2924805,13.4472656 C30.0808919,13.4472656 29.9073893,13.5192057 29.7719727,13.6630859 C29.636556,13.8069661 29.5688477,13.976237 29.5688477,14.1708984 C29.5688477,14.3655599 29.636556,14.5327148 29.7719727,14.6723633 C29.9073893,14.8120117 30.0808919,14.8818359 30.2924805,14.8818359 L32.9204102,14.8818359 Z M32.9204102,18.2333984 C33.1404622,18.2333984 33.3160807,18.1614583 33.4472656,18.0175781 C33.5784505,17.8736979 33.644043,17.7044271 33.644043,17.5097656 C33.644043,17.3151042 33.5784505,17.1479492 33.4472656,17.0083008 C33.3160807,16.8686523 33.1404622,16.7988281 32.9204102,16.7988281 L30.2924805,16.7988281 C30.0808919,16.7988281 29.9073893,16.8686523 29.7719727,17.0083008 C29.636556,17.1479492 29.5688477,17.3151042 29.5688477,17.5097656 C29.5688477,17.7044271 29.636556,17.8736979 29.7719727,18.0175781 C29.9073893,18.1614583 30.0808919,18.2333984 30.2924805,18.2333984 L32.9204102,18.2333984 Z M24.0717773,33.6708984 C24.6049805,33.6708984 25.0895182,33.5397135 25.5253906,33.2773438 C25.961263,33.014974 26.3082682,32.6658529 26.5664062,32.2299805 C26.8245443,31.7941081 26.9536133,31.3053385 26.9536133,30.7636719 C26.9536133,30.2050781 26.8097331,29.7057292 26.5219727,29.265625 C26.2342122,28.8255208 25.8660482,28.4785156 25.4174805,28.2246094 C25.222819,28.1230469 25.0874023,28.0151367 25.0112305,27.9008789 C24.9350586,27.7866211 24.8969727,27.585612 24.8969727,27.2978516 L24.8969727,21.0517578 C24.8969727,20.7386068 24.816569,20.4931641 24.6557617,20.3154297 C24.4949544,20.1376953 24.300293,20.0488281 24.0717773,20.0488281 C23.8347982,20.0488281 23.6401367,20.1376953 23.487793,20.3154297 C23.3354492,20.4931641 23.2592773,20.7386068 23.2592773,21.0517578 L23.2592773,27.2978516 C23.2592773,27.585612 23.2211914,27.7866211 23.1450195,27.9008789 C23.0688477,28.0151367 22.933431,28.1230469 22.7387695,28.2246094 C22.2732747,28.4785156 21.8966471,28.8255208 21.6088867,29.265625 C21.3211263,29.7057292 21.1772461,30.2050781 21.1772461,30.7636719 C21.1772461,31.3053385 21.308431,31.7941081 21.5708008,32.2299805 C21.8331706,32.6658529 22.1822917,33.014974 22.6181641,33.2773438 C23.0540365,33.5397135 23.5385742,33.6708984 24.0717773,33.6708984 Z M32.9204102,21.5849609 C33.1404622,21.5849609 33.3160807,21.5151367 33.4472656,21.3754883 C33.5784505,21.2358398 33.644043,21.0686849 33.644043,20.8740234 C33.644043,20.679362 33.5784505,20.512207 33.4472656,20.3725586 C33.3160807,20.2329102 33.1404622,20.1630859 32.9204102,20.1630859 L30.2924805,20.1630859 C30.0808919,20.1630859 29.9073893,20.2329102 29.7719727,20.3725586 C29.636556,20.512207 29.5688477,20.679362 29.5688477,20.8740234 C29.5688477,21.0686849 29.636556,21.2358398 29.7719727,21.3754883 C29.9073893,21.5151367 30.0808919,21.5849609 30.2924805,21.5849609 L32.9204102,21.5849609 Z M32.9204102,24.9492188 C33.1404622,24.9492188 33.3160807,24.8772786 33.4472656,24.7333984 C33.5784505,24.5895182 33.644043,24.4244792 33.644043,24.2382812 C33.644043,24.0436198 33.5784505,23.874349 33.4472656,23.7304688 C33.3160807,23.5865885 33.1404622,23.5146484 32.9204102,23.5146484 L30.2924805,23.5146484 C30.0808919,23.5146484 29.9073893,23.5865885 29.7719727,23.7304688 C29.636556,23.874349 29.5688477,24.0436198 29.5688477,24.2382812 C29.5688477,24.4244792 29.636556,24.5895182 29.7719727,24.7333984 C29.9073893,24.8772786 30.0808919,24.9492188 30.2924805,24.9492188 L32.9204102,24.9492188 Z" id="temperatuur" fill="#FA8925" fill-rule="nonzero"></path>
    </g>
</svg>